<?xml version="1.0" encoding="utf-8"?>
<!-- Generator: Adobe Illustrator 16.0.0, SVG Export Plug-In . SVG Version: 6.00 Build 0)  -->
<!DOCTYPE svg PUBLIC "-//W3C//DTD SVG 1.1//EN" "http://www.w3.org/Graphics/SVG/1.1/DTD/svg11.dtd">
<svg version="1.1" id="Layer_1" xmlns="http://www.w3.org/2000/svg" xmlns:xlink="http://www.w3.org/1999/xlink" x="0px" y="0px"
	 width="480px" height="125px" viewBox="0 0 480 125" enable-background="new 0 0 480 125" xml:space="preserve">
<g>
	<g>
		<path fill="#FF9933" d="M36.893,19.311l29.261,36.551l35.045-30.238C76.049-1.167,36.893,19.311,36.893,19.311"/>
		<polygon fill="#0A0909" points="63.006,64.602 68.798,60.216 34.379,20.111 		"/>
		<polygon fill="#0A0909" points="66.028,63.527 62.62,59.077 87.685,40.653 		"/>
		<path fill="#0A0909" d="M70.517,59.661c0.934,2.93-0.685,6.062-3.616,6.996s-6.062-0.685-6.996-3.614
			c-0.935-2.931,0.684-6.062,3.615-6.997C66.45,55.112,69.583,56.73,70.517,59.661"/>
		<path fill="#0A0909" d="M82.196,23.808c3.324,2.14,6.171,4.744,8.53,7.679c-2.372-4.206-5.742-7.896-10.048-10.665
			c-11.555-7.438-26.328-6.06-36.839,2.346C55.617,16.433,70.347,16.183,82.196,23.808"/>
		<path fill="#0A0909" d="M77.605,30.7c2.398,1.543,4.464,3.41,6.183,5.501c-1.746-2.986-4.196-5.619-7.304-7.62
			c-8.339-5.366-18.867-4.578-26.265,1.195C58.542,25.188,69.053,25.195,77.605,30.7"/>
		<path fill="#0A0909" d="M48.658,9.408c-26.836,8.552-41.66,37.24-33.106,64.078c8.551,26.837,37.24,41.658,64.077,33.106
			c26.836-8.553,41.66-37.24,33.106-64.077C104.182,15.678,75.494,0.856,48.658,9.408 M79.608,100.737
			c-23.896,7.614-49.444-5.583-57.06-29.481c-7.616-23.897,5.584-49.443,29.481-57.06c23.896-7.614,49.443,5.582,57.06,29.48
			C116.704,67.575,103.505,93.121,79.608,100.737"/>
	</g>
</g>
<g>
	<path fill="#FF9933" d="M210.613,34.552l-19.893,59.617h-4.254c-0.68,0-1.137-0.419-1.377-1.258l-16.297-48.413
		c-0.201-0.599-0.381-1.198-0.539-1.797c-0.16-0.6-0.301-1.198-0.42-1.798c-0.201,1.198-0.5,2.396-0.898,3.595l-16.538,48.413
		c-0.24,0.839-0.719,1.258-1.438,1.258h-4.074l-19.893-59.617h4.314c0.559,0,1.019,0.15,1.378,0.45
		c0.359,0.299,0.599,0.629,0.719,0.988l15.039,47.034c0.24,0.919,0.459,1.808,0.659,2.666c0.199,0.859,0.359,1.708,0.479,2.547
		c0.239-0.839,0.479-1.688,0.719-2.547c0.24-0.858,0.519-1.747,0.839-2.666l15.938-47.454c0.277-0.878,0.838-1.317,1.678-1.317
		h2.336c0.879,0,1.457,0.439,1.738,1.317l15.816,47.454c0.279,0.919,0.541,1.798,0.779,2.637c0.24,0.839,0.459,1.678,0.66,2.517
		c0.158-0.839,0.328-1.678,0.508-2.517s0.41-1.718,0.689-2.637l15.16-47.034c0.158-0.439,0.418-0.788,0.777-1.049
		c0.359-0.259,0.779-0.39,1.26-0.39H210.613z"/>
	<path fill="#FF9933" d="M221.16,43c3.116-3.115,6.391-5.472,9.826-7.069s7.33-2.397,11.684-2.397c3.195,0,5.992,0.51,8.389,1.528
		s4.383,2.478,5.962,4.374c1.577,1.897,2.766,4.194,3.564,6.891c0.799,2.695,1.198,5.702,1.198,9.017v38.826h-2.276
		c-1.198,0-1.938-0.559-2.217-1.678l-0.839-7.669c-1.639,1.598-3.266,3.036-4.883,4.313c-1.618,1.279-3.307,2.357-5.063,3.235
		c-1.758,0.88-3.655,1.559-5.692,2.037c-2.037,0.479-4.274,0.72-6.71,0.72c-2.037,0-4.015-0.3-5.932-0.899
		c-1.918-0.599-3.625-1.518-5.123-2.756c-1.498-1.237-2.696-2.825-3.595-4.764c-0.899-1.937-1.349-4.263-1.349-6.979
		c0-2.517,0.719-4.854,2.157-7.011c1.438-2.157,3.694-4.034,6.771-5.632c3.075-1.598,7.02-2.876,11.833-3.835
		s10.596-1.518,17.346-1.678v-6.231c0-5.512-1.188-9.756-3.564-12.731c-2.377-2.976-5.901-4.464-10.575-4.464
		c-2.876,0-5.323,0.399-7.34,1.198c-2.018,0.799-3.726,1.678-5.123,2.636c-1.398,0.959-2.537,1.838-3.415,2.637
		c-0.879,0.8-1.618,1.198-2.217,1.198c-0.44,0-0.8-0.1-1.079-0.3c-0.279-0.199-0.52-0.458-0.719-0.778L221.16,43z M256.211,65.35
		c-5.672,0.2-10.555,0.649-14.649,1.348c-4.095,0.699-7.47,1.647-10.126,2.846s-4.623,2.627-5.901,4.284
		c-1.278,1.658-1.917,3.546-1.917,5.662c0,1.998,0.329,3.726,0.988,5.183c0.659,1.459,1.537,2.657,2.637,3.596
		c1.098,0.938,2.366,1.628,3.805,2.066c1.438,0.44,2.936,0.659,4.493,0.659c2.316,0,4.443-0.249,6.381-0.749
		c1.938-0.499,3.735-1.198,5.393-2.097s3.206-1.967,4.644-3.206c1.438-1.237,2.855-2.576,4.254-4.014V65.35z"/>
	<path fill="#FF9933" d="M289.644,14.001c0,0.719-0.149,1.389-0.449,2.007c-0.3,0.62-0.689,1.169-1.168,1.647
		c-0.479,0.479-1.039,0.86-1.678,1.139c-0.64,0.28-1.318,0.42-2.037,0.42c-0.72,0-1.399-0.14-2.037-0.42
		c-0.64-0.278-1.198-0.659-1.678-1.139c-0.479-0.479-0.859-1.027-1.139-1.647c-0.28-0.618-0.42-1.288-0.42-2.007
		s0.14-1.408,0.42-2.067c0.279-0.659,0.659-1.229,1.139-1.707c0.479-0.479,1.038-0.859,1.678-1.139
		c0.638-0.279,1.317-0.42,2.037-0.42c0.719,0,1.397,0.141,2.037,0.42c0.639,0.279,1.198,0.659,1.678,1.139
		c0.479,0.479,0.868,1.048,1.168,1.707S289.644,13.282,289.644,14.001z M287.188,34.552v59.617h-5.692V34.552H287.188z"/>
	<path fill="#FF9933" d="M323.795,95.128c-4.035,0-7.181-1.118-9.438-3.355c-2.257-2.236-3.385-5.692-3.385-10.365V40.664h-8.568
		c-0.44,0-0.8-0.12-1.078-0.36c-0.28-0.239-0.42-0.578-0.42-1.019v-2.217l10.186-0.719l1.438-21.33
		c0.079-0.359,0.239-0.679,0.479-0.959c0.239-0.278,0.578-0.419,1.019-0.419h2.696v22.768h18.813v4.255h-18.813v40.443
		c0,1.638,0.209,3.046,0.629,4.224c0.419,1.179,0.998,2.147,1.737,2.906s1.607,1.318,2.606,1.678
		c0.998,0.359,2.076,0.539,3.235,0.539c1.438,0,2.676-0.21,3.715-0.629c1.038-0.42,1.938-0.878,2.696-1.378
		c0.759-0.499,1.378-0.959,1.857-1.378c0.479-0.42,0.858-0.63,1.139-0.63c0.319,0,0.639,0.2,0.959,0.6l1.558,2.517
		c-1.519,1.678-3.445,3.025-5.782,4.044S326.311,95.128,323.795,95.128z"/>
	<path d="M394.796,34.552v59.617h-3.176c-0.999,0-1.578-0.519-1.737-1.558l-0.54-8.868c-2.756,3.437-5.941,6.192-9.557,8.269
		c-3.615,2.078-7.639,3.116-12.072,3.116c-3.316,0-6.212-0.52-8.688-1.559c-2.477-1.038-4.534-2.536-6.171-4.493
		c-1.639-1.957-2.876-4.314-3.715-7.07s-1.259-5.872-1.259-9.347V34.552h5.752v38.107c0,5.593,1.278,9.976,3.835,13.151
		c2.556,3.176,6.45,4.764,11.684,4.764c3.874,0,7.499-0.989,10.875-2.966c3.375-1.978,6.381-4.724,9.018-8.239V34.552H394.796z"/>
	<path d="M419.9,45.277c2.636-3.595,5.722-6.45,9.257-8.568c3.535-2.116,7.499-3.176,11.894-3.176c7.31,0,13.011,2.537,17.105,7.609
		c4.095,5.073,6.142,12.683,6.142,22.828c0,4.354-0.569,8.419-1.707,12.193c-1.139,3.774-2.816,7.051-5.033,9.826
		c-2.217,2.777-4.934,4.964-8.148,6.561c-3.216,1.599-6.921,2.397-11.114,2.397c-4.035,0-7.53-0.74-10.486-2.218
		c-2.956-1.477-5.512-3.654-7.669-6.53v29.06h-5.752V34.552h3.176c0.998,0,1.577,0.5,1.737,1.498L419.9,45.277z M420.14,81.167
		c1.158,1.718,2.367,3.166,3.625,4.344c1.259,1.179,2.586,2.138,3.984,2.876c1.397,0.74,2.886,1.269,4.464,1.588
		c1.577,0.32,3.245,0.479,5.003,0.479c3.515,0,6.591-0.639,9.228-1.917c2.636-1.278,4.843-3.086,6.62-5.423s3.116-5.132,4.015-8.388
		s1.349-6.84,1.349-10.756c0-8.867-1.639-15.388-4.913-19.562c-3.276-4.174-7.97-6.261-14.081-6.261
		c-3.954,0-7.529,1.019-10.725,3.056c-3.196,2.037-6.052,4.874-8.568,8.508V81.167z"/>
</g>
</svg>
